<svg width="32" height="32" viewBox="0 0 32 32" fill="none" xmlns="http://www.w3.org/2000/svg">
<path d="M0 18.9609C0.0898438 18.4313 0.15625 17.8961 0.273438 17.3727C0.674219 15.5938 1.46641 13.9906 2.53906 12.5242C4.16946 10.2848 6.33122 8.48602 8.82969 7.28984C9.09453 7.16094 9.26016 7.00234 9.32656 6.71016C9.39767 6.43941 9.48533 6.17328 9.58906 5.91328C10.1086 4.4875 11.5578 3.7375 13.0266 4.13047C13.1047 4.15156 13.1828 4.16562 13.2766 4.18516C13.7453 2.89844 14.6336 2.15859 16.0148 2.16406C17.382 2.16953 18.2586 2.90937 18.7016 4.12656C19.1703 4.09844 19.6172 4.01484 20.0508 4.05859C21.1164 4.16484 21.893 4.72422 22.3266 5.71094C22.4729 6.0659 22.5986 6.429 22.7031 6.79844C22.7291 6.89723 22.7774 6.98875 22.8443 7.06595C22.9112 7.14315 22.995 7.20398 23.0891 7.24375C24.9438 8.12686 26.6216 9.34132 28.0398 10.8273C29.95 12.832 31.3211 15.1336 31.8367 17.8867C31.9039 18.2414 31.9461 18.6016 32 18.9586V20.3313C31.976 20.4101 31.9572 20.4905 31.9438 20.5719C31.8384 21.6708 31.5035 22.7354 30.9609 23.6969C29.7852 25.7813 27.9562 27.107 25.8227 28.0672C23.2031 29.2469 20.4219 29.7258 17.5773 29.8641C15.1555 29.9789 12.7484 29.8594 10.3656 29.3773C8.05 28.9086 5.84844 28.1523 3.89766 26.7875C2.04297 25.4898 0.73125 23.7977 0.219531 21.5531C0.127344 21.1531 0.071875 20.7414 0 20.3336V18.9609ZM15.9273 28.0469C17.8281 28.032 19.6414 27.8852 21.4297 27.5C23.4609 27.0664 25.3898 26.3977 27.1125 25.1953C29.5766 23.4766 30.6242 20.7086 29.9141 17.7867C29.418 15.7445 28.3914 14.0016 26.9992 12.457C25.5673 10.8654 23.8142 9.59556 21.8555 8.73125C21.6673 8.6565 21.4992 8.5387 21.3648 8.38729C21.2303 8.23588 21.1332 8.05508 21.0812 7.85938C20.9633 7.45078 20.8211 7.04922 20.6828 6.64688C20.3906 5.80234 19.6094 5.63047 18.9844 6.275C18.375 6.90547 17.5969 6.73359 17.307 5.90313C17.1633 5.49141 17.0336 5.075 16.8852 4.66563C16.7289 4.23281 16.4164 4.00937 15.9953 4.01016C15.5742 4.01094 15.2648 4.23438 15.1078 4.66797C14.9594 5.07812 14.8297 5.49453 14.6859 5.90625C14.3969 6.73359 13.6148 6.90391 13.0078 6.27344C12.3883 5.63047 11.6055 5.80469 11.3133 6.65469C11.1781 7.04531 11.0367 7.43594 10.9227 7.83828C10.7984 8.28281 10.532 8.56094 10.1062 8.75C8.42624 9.49131 6.8977 10.5367 5.59766 11.8336C3.73203 13.6977 2.35703 15.8398 1.95938 18.5008C1.66953 20.4438 2.07109 22.2227 3.33359 23.7648C4.50547 25.193 6.05937 26.0586 7.75391 26.6961C10.4148 27.6945 13.1852 28.0211 15.9273 28.0469Z" fill="#D95103"/>
<path d="M10.3446 13.1015C9.93127 13.0523 9.64143 12.8758 9.4719 12.5281C9.30237 12.1805 9.33049 11.8195 9.59768 11.5406C10.2524 10.8594 10.9203 10.1883 11.6071 9.53905C11.9563 9.20858 12.5149 9.26327 12.8508 9.60311C13.1867 9.94295 13.2414 10.4883 12.9024 10.843C12.2508 11.5281 11.5742 12.1922 10.8922 12.8437C10.7531 12.9758 10.5289 13.018 10.3446 13.1015Z" fill="#D95103"/>
<path d="M21.6477 13.1188C21.436 13.0039 21.1883 12.9266 21.0227 12.7664C20.3883 12.1664 19.7727 11.5461 19.1649 10.9203C18.7813 10.5297 18.786 9.98281 19.1492 9.60703C19.5125 9.23125 20.0867 9.225 20.4891 9.61406C21.1141 10.2227 21.7305 10.8414 22.3438 11.4633C22.4827 11.5915 22.5774 11.7605 22.6143 11.9459C22.6512 12.1313 22.6284 12.3236 22.5492 12.4953C22.4063 12.8383 22.061 13.057 21.6477 13.1188Z" fill="#D95103"/>
<path d="M16.9367 11.1812C16.9367 11.4937 16.9445 11.8062 16.9367 12.1187C16.9203 12.6617 16.5312 13.0523 16.0133 13.0562C15.4812 13.0617 15.0758 12.6656 15.0672 12.1086C15.0562 11.4961 15.0562 10.8833 15.0672 10.2703C15.0773 9.72968 15.4742 9.33281 15.9898 9.33281C16.5179 9.32656 16.9219 9.72343 16.9367 10.282C16.9437 10.5781 16.9367 10.8797 16.9367 11.1812Z" fill="#D95103"/>
</svg>
